<svg width="113" height="63" viewBox="0 0 113 63" fill="none" xmlns="http://www.w3.org/2000/svg">
<g clip-path="url(#clip0_32_2)">
<path d="M58.1171 17.6519L53.29 17.6101L46.0976 56.506L43.5392 56.7567L46.6768 37.831L45.1804 38.583C43.9254 39.2096 43.491 39.2514 42.3324 39.5021C41.1739 39.711 40.0637 39.711 39.0017 39.5439C37.8432 39.3768 37.3605 39.1679 36.4916 38.6665C35.6228 38.1652 34.8987 37.4132 34.3677 36.5776C33.8367 35.7003 33.4023 34.9482 33.2575 33.7366C33.1127 32.5251 33.3058 31.3135 33.6437 29.6841L36.202 17.3177L30.9888 17.2341L31.3266 15.5212L58.4067 15.8136L58.1171 17.6519ZM50.6351 17.5265L38.8569 17.3594L36.3951 29.893C36.202 30.8122 36.1055 31.6895 36.1055 32.4415C36.1055 33.1935 36.202 33.862 36.4434 34.4469C36.6847 35.0318 37.0709 35.4913 37.5536 35.8256C38.0363 36.2016 38.7121 36.4105 39.581 36.5358C40.9326 36.7447 42.429 36.494 43.684 35.9091C44.9391 35.366 46.4837 34.7393 47.4492 33.6949L50.6351 17.5265Z" fill="#F0F0F0"/>
<path d="M80.8528 58.9709L78.6323 57.5087L104.119 28.389L70.4745 6.37164L72.164 4.44983L108.078 27.8876L107.209 28.8903L80.8528 58.9709Z" fill="#F1D00A"/>
<path d="M40.8361 62.4386L42.5255 60.475L8.8323 38.4159L34.3677 9.33792L32.1473 7.87567L4.92235 38.8754L6.03258 39.6275L40.8361 62.4386Z" fill="#F1D00A"/>
<path d="M63.2361 5.12347L60.2789 4.72534L49.8919 62.5194L52.8491 62.9175L63.2361 5.12347Z" fill="#F1D00A"/>
<path d="M63.9579 35.1571L67.4334 17.5683L71.7778 17.3594C72.2122 17.3176 72.6466 17.3176 73.0811 17.3594C78.4874 17.5265 79.0184 20.7852 78.2944 24.5035L77.7634 27.2191C76.798 32.1908 75.1085 34.6557 67.9644 34.99L63.9579 35.1571ZM73.9982 15.2704C73.4673 15.2704 72.9363 15.2704 72.4053 15.2704L64.8267 15.6465L56.6689 56.9237L59.7583 56.7984L63.5717 37.2042L67.6747 36.9953C77.1841 36.5358 79.839 33.1517 80.901 27.2191L81.3837 24.42C82.2526 19.2812 80.6114 15.4793 73.9982 15.2704Z" fill="#F0F0F0"/>
</g>
<defs>
<clipPath id="clip0_32_2">
<rect width="113" height="63" fill="white"/>
</clipPath>
</defs>
</svg>
